PathFileType	4	(X/Y/Z)	/home/abdul/Desktop/myosuite/custom_workspace/IK/output/S11_12_2.trc
DataRate	CameraRate	NumFrames	NumMarkers	Units	OrigDataRate	OrigDataStartFrame	OrigNumFrames
200.0	200.0	50	3	mm	200.0	563	1500
Frame#	Time	V_Shoulder			V_Elbow			V_Wrist		
		X1	Y1	Z1	X2	Y2	Z2	X3	Y3	Z3

563	2.81	-99.03698375055092	654.41393219536	309.0474051405583	-296.78451222247475	426.6022488434826	156.75224561862458	-112.7988029527285	370.4805495924294	329.2324400760209
564	2.815	-99.01330519105402	654.5527108927752	309.1761693599657	-296.84384798283577	426.43348127937486	157.53854427074828	-112.71770719337515	371.06497773351543	330.1216855192452
565	2.82	-98.99005546465084	654.6883895048996	309.30277582235743	-296.90099450563264	426.2658034107013	158.31375546904258	-112.63540081015668	371.6416212825545	330.9960698532528
566	2.825	-98.96718318207591	654.8210408895994	309.42721313857874	-296.95614225046813	426.09960958380185	159.07762880109868	-112.55210193778763	372.2101928571587	331.85514091723496
567	2.83	-98.94463484541632	654.9507378261682	309.54947411281296	-297.0094866310229	425.9352878511155	159.82994205476695	-112.46802406016067	372.77042017343473	332.6984761194956
568	2.835	-98.92235503474234	655.0775529709125	309.6695557341063	-297.0612274889002	425.77321899273784	160.57050184384696	-112.38337558858414	373.3220470002518	333.5256838062543
569	2.84	-98.90028660113217	655.2015588116395	309.7874591538322	-297.1115685541621	425.6137755636327	161.29914412256812	-112.29835947961685	373.8648340308348	334.3364045172102
570	2.845	-98.8783708654875	655.322827621019	309.90318964908914	-297.160716893904	425.4573209698481	162.01573458590485	-112.21317289224375	374.398559668968	335.1303121221481
571	2.85	-98.85654782251281	655.441431408807	310.0167565720894	-297.20888235024313	425.30420857693923	162.72016895329165	-112.1280068839074	374.9230207275234	335.9071148333884
572	2.855	-98.83475634920946	655.5574418729316	310.12817328565524	-297.25627696912426	425.15478085364356	163.41237313384306	-112.04304614469248	375.43803303746785	336.66655608943535
573	2.86	-98.81293441721603	655.6709303494591	310.23745708500275	-297.30311442137116	425.0093685536782	164.09230327173455	-111.95846876875723	375.9434319659431	337.4084153057524
574	2.865	-98.79101930831011	655.7819677614712	310.34462910605095	-297.3496094174336	424.86828993834644	164.75994567096149	-111.87444606191644	376.4390728424611	338.1325084891997
575	2.87	-98.768947832373	655.8906245668974	310.4497142205587	-297.395977117299	424.73185004244067	165.4153165992613	-111.7911423841071	376.9248312927019	338.8386887132916
576	2.875	-98.74665654710725	655.9969707053662	310.5527409184456	-297.44243253705224	424.6003399857244	166.05846197155736	-111.70871502531065	377.40060347984627	339.5268464520732
577	2.88	-98.72408197878836	656.1010755441429	310.6537411777152	-297.48918995358247	424.474036332059	166.6894569138541	-111.6273141133659	377.866306253813	340.19690977107405
578	2.885	-98.70116084332773	656.2030078232438	310.7527503224518	-297.5364623089425	424.35320049801885	167.30840520908595	-111.54708255198447	378.3218772092057	340.84884437446306
579	2.89	-98.67783026691995	656.3028355998237	310.849806869418	-297.58446061587824	424.2380782126089	167.9154386269873	-111.4681559871761	378.7672746531971	341.4826535082025
580	2.895	-98.65402800554871	656.4006261919458	310.94495236383017	-297.6333933660459	424.12889902946574	168.51071614060862	-111.39066280020569	379.20247748499	342.0983777196808
581	2.9	-98.62969266262822	656.4964461218551	311.03823120493985	-297.68346594243997	424.0258758926863	169.094423032651	-111.31472412513668	379.6274849888964	342.6960944749775
582	2.905	-98.60476390406376	656.5903610588852	311.12969046209423	-297.73488003755324	423.92920475719006	169.66676989532363	-111.2404538889661	380.0423165434577	343.27591763558985
583	2.91	-98.57918267002294	656.6824357621375	311.21937968199273	-297.787833078787	423.8390642642801	170.2279915279446	-111.16795887232607	380.4470112493966	343.837996797115
584	2.915	-98.55289138272163	656.7727340230825	311.30735068789676	-297.84251766262355	423.7556154728316	170.77834573700238	-111.09733878871387	380.84162747953815	344.3825164930351
585	2.92	-98.52583414954216	656.861318608232	311.39365737158545	-297.89912099906644	423.67900164629947	171.31811204386935	-111.0286863802169	381.2262423541639	344.90969526739184
586	2.925	-98.49795696081877	656.9482512020485	311.4783554788849	-297.957824367841	423.60934809550525	171.84759030580778	-110.96208752772009	381.6009511455677	345.419784620755
587	2.93	-98.4692078816443	657.0335923502562	311.561502389625	-298.0188025878375	423.54676207693456	172.36709925633224	-110.89762137362106	381.96586661585934	345.91306783448533
588	2.935	-98.43953723707439	657.1174014037207	311.64315689290356	-298.0822235012605	423.4913327460557	172.87697497138473	-110.83536045512989	382.3211182923192	346.3898586788628
589	2.94	-98.40889779012939	657.1997364630735	311.72337895856134	-298.1482474739321	423.4431311649545	173.37756926814149	-110.77537084629759	382.6668516848347	346.8505000111925
590	2.945	-98.37724491202016	657.2806543242559	311.802229505782	-298.2170269131744	423.40221036337425	173.86924804359862	-110.71771230699663	383.0032274501482	347.29536227050755
591	2.95	-98.34453674405349	657.3602104251581	311.87977016974884	-298.288705804674	423.3686054520547	174.35238956037745	-110.66243843716816	383.3304205078209	347.72484187596245
592	2.955	-98.3107343507013	657.4384587935319	311.9560630672959	-298.36341926970266	423.34233378707233	174.8273826874481	-110.60959683475318	383.64861911296214	348.13935953644426
593	2.96	-98.27580186335213	657.5154519963517	312.03117056249334	-298.44129314404154	423.3233951837123	175.29462510368847	-110.55922925583653	383.95802389088374	348.53935847932576
594	2.965	-98.23970661429503	657.5912410907998	312.10515503310916	-298.5224435799215	423.3117721782354	175.75452147237667	-110.51137177565195	384.2588468389327	348.9253026066349
595	2.97	-98.20241926052246	657.665875577048	312.1780786388797	-298.60697667225884	423.30743033575095	176.20748159485473	-110.46605494922332	384.5513103008033	349.2976745872245
596	2.975	-98.16391389697452	657.7394033530055	312.250003092516	-298.6949881104232	423.3103186022703	176.6539185517018	-110.42330397054835	384.83564591866445	349.65697389378647
597	2.98	-98.12416815888497	657.8118706711989	312.32098943435557	-298.7865628567357	423.32036969888384	177.0942468398125	-110.38313882936737	385.1120935684314	350.0037147937731
598	2.985	-98.08316331292762	657.8833220979445	312.3910978115539	-298.8817748528463	423.3375005558986	177.52888051379375	-110.3455744646977	385.38090028348506	350.33842430344833
599	2.99	-98.04088433690124	657.9538004749702	312.4603872626854	-298.98068675508864	423.3616127846676	177.95823134006775	-110.31062091445372	385.6423191720829	350.66164011441623
600	2.995	-97.99731998773133	658.0233468836371	312.5289155085985	-299.0833496998604	423.39259318476377	178.38270697200454	-110.27828346061133	385.8966083336219	350.9739085020366
601	3.0	-97.95246285760713	658.092000611904	312.59673875033894	-299.18980310001314	423.43031428407636	178.80270915429736	-110.24856276951401	386.1440297788054	351.275782225159
602	3.005	-97.9063094181135	658.159799124174	312.66391147492317	-299.3000744731778	423.47463490935223	179.21863196464938	-110.22145502705229	386.38484835863204	351.5678184265747
603	3.01	-97.85886005225808	658.2267780341508	312.73048626970467	-299.41417930288054	423.52540078466143	179.63086010065018	-110.19695206857882	386.61933070696614	351.8505765435051
604	3.015	-97.81011907433471	658.2929710808301	312.79651364603654	-299.53212093323464	423.5824451552355	180.0397672194967	-110.17504150354765	386.8477442012716	352.12461623732065
605	3.02	-97.76009473760524	658.3584101077383	312.8620418728915	-299.6538904979156	423.6455894341133	180.4457143379464	-110.15570683498566	387.0703559458934	352.3904953515061
606	3.025	-97.7087992298223	658.4231250455281	312.9271168210517	-299.77946688404523	423.71464386902085	180.84904829959441	-110.13892757401652	387.287431782051	352.6487679066688
607	3.03	-97.65624865665514	658.4871438980254	312.991781818436	-299.90881673152376	423.789408226924	181.25010031622716	-110.12467934976159	387.4992353284758	352.8999821411238
608	3.035	-97.60246301312036	658.550492731824	313.05607751707686	-300.0418944682568	423.86967249371054	181.64918458964297	-110.11293401503852	387.7060270563745	353.1446786052819
609	3.04	-97.54746614315768	658.6131956695029	313.1200417722113	-300.1786423816294	423.95521758648863	182.0465970199274	-110.10365974836382	387.9080634021385	353.38338831771983
610	3.045	-97.49128568752866	658.6752748865433	313.1837095338918	-300.318990726475	424.0458160760322	182.44261400574743	-110.09682115284198	388.1055959209459	353.61663099043045
611	3.05	-97.43395302025301	658.7367506120078	313.247112751469	-300.4628578696843	424.1412329169515	182.83749134177344	-110.09237935258913	388.2988704841209	353.84491333032963
612	3.055	-97.37550317383244	658.7976411330377	313.31028029124167	-300.61015047148373	424.2412261832267	183.2314632178616	-110.090292087394	388.488126522824	354.06872742364817
